<svg xmlns="http://www.w3.org/2000/svg" width="52.119" height="42.504" viewBox="0 0 52.119 42.504">
  <g id="youtube" transform="translate(0.001 -264.829)">
    <path id="Path_31" data-name="Path 31" d="M206.682,113.575l-12.373-6.77a2.272,2.272,0,0,0-3.364,1.994v13.423a2.268,2.268,0,0,0,3.349,2l12.373-6.653a2.273,2.273,0,0,0,.014-4Zm-12.454,6.959V110.5l9.247,5.06Zm0,0" transform="translate(-172.137 169.998)" fill="#f7cc00"/>
    <path id="Path_32" data-name="Path 32" d="M51.734,10.032l0-.026c-.044-.452-.484-4.469-2.3-6.513A8.21,8.21,0,0,0,43.817.658c-.095-.012-.181-.022-.259-.033l-.091-.01C36.577.074,26.172,0,26.067,0h-.018c-.1,0-10.51.074-17.462.614L8.5.624c-.074.011-.155.021-.244.032A8.022,8.022,0,0,0,2.667,3.579C.939,5.6.44,9.532.388,9.974l-.006.057C.367,10.22,0,14.694,0,19.186v4.2c0,4.492.368,8.967.383,9.155l0,.028c.044.444.483,4.388,2.289,6.433a8.362,8.362,0,0,0,5.805,2.8c.212.026.394.048.519.072l.12.018c3.978.408,16.452.608,16.981.617h.032c.1,0,10.509-.074,17.4-.614l.091-.01c.087-.012.185-.024.292-.036a7.829,7.829,0,0,0,5.536-2.852c1.728-2.022,2.228-5.954,2.278-6.4l.006-.057c.016-.188.384-4.662.384-9.155v-4.2c0-4.492-.368-8.966-.384-9.155ZM49.063,23.385c0,4.158-.337,8.44-.369,8.833-.13,1.083-.656,3.57-1.5,4.555a4.866,4.866,0,0,1-3.6,1.8c-.118.013-.227.026-.325.039-6.664.519-16.677.6-17.138.6-.517-.008-12.808-.211-16.665-.6-.2-.035-.411-.061-.636-.089a5.5,5.5,0,0,1-3.906-1.757l-.028-.033c-.827-.928-1.339-3.254-1.469-4.51-.024-.3-.37-4.629-.37-8.845v-4.2c0-4.153.336-8.43.369-8.831.155-1.275.691-3.612,1.5-4.557A5.11,5.11,0,0,1,8.6,3.923L8.85,3.89c6.761-.521,16.846-.6,17.208-.6s10.443.08,17.144.6l.269.034a5.289,5.289,0,0,1,3.741,1.824l.012.014c.827.928,1.339,3.295,1.469,4.576.023.28.37,4.622.37,8.847Zm0,0" transform="translate(0 264.829)" fill="#f7cc00"/>
  </g>
</svg>
