<svg xmlns="http://www.w3.org/2000/svg" xmlns:xlink="http://www.w3.org/1999/xlink" width="20" height="20" viewBox="0 0 20 20">
  <defs>
    <clipPath id="clip-path">
      <rect id="icon-telefone" width="20" height="20" transform="translate(698.5 32)" fill="#f7cc00"/>
    </clipPath>
  </defs>
  <g id="Mask_Group_1" data-name="Mask Group 1" transform="translate(-698.5 -32)" clip-path="url(#clip-path)">
    <g id="_001-call" data-name="001-call" transform="translate(698.461 31.961)">
      <g id="Group_2" data-name="Group 2">
        <g id="Group_1" data-name="Group 1">
          <path id="Path_6" data-name="Path 6" d="M19.514,15.468l-4.048-2.7a1.182,1.182,0,0,0-1.582.257L12.7,14.541a.5.5,0,0,1-.646.136l-.224-.124A13.555,13.555,0,0,1,8.3,11.779,13.611,13.611,0,0,1,5.527,8.246L5.4,8.022a.5.5,0,0,1,.133-.649L7.052,6.195a1.182,1.182,0,0,0,.257-1.582L4.61.565A1.175,1.175,0,0,0,3.025.208L1.333,1.225A2.388,2.388,0,0,0,.244,2.638c-.61,2.221-.151,6.054,5.5,11.7,4.492,4.491,7.836,5.7,10.134,5.7a5.9,5.9,0,0,0,1.566-.2,2.386,2.386,0,0,0,1.413-1.089l1.018-1.692A1.176,1.176,0,0,0,19.514,15.468ZM19.3,16.711,18.281,18.4a1.722,1.722,0,0,1-1.017.788c-2.05.563-5.632.1-11.053-5.324S.324,4.865.887,2.814A1.725,1.725,0,0,1,1.676,1.8L3.368.781a.51.51,0,0,1,.688.155l1.466,2.2L6.753,4.983a.513.513,0,0,1-.111.687L5.126,6.849a1.166,1.166,0,0,0-.309,1.5l.12.219A14.139,14.139,0,0,0,7.827,12.25a14.154,14.154,0,0,0,3.686,2.889l.219.121a1.167,1.167,0,0,0,1.5-.309l1.179-1.515a.513.513,0,0,1,.687-.111l4.048,2.7A.51.51,0,0,1,19.3,16.711Z" fill="#f7cc00"/>
          <path id="Path_7" data-name="Path 7" d="M11.372,3.374A5.672,5.672,0,0,1,17.038,9.04a.333.333,0,1,0,.667,0,6.339,6.339,0,0,0-6.332-6.332.333.333,0,1,0,0,.667Z" fill="#f7cc00"/>
          <path id="Path_8" data-name="Path 8" d="M11.372,5.374A3.67,3.67,0,0,1,15.038,9.04a.333.333,0,1,0,.667,0,4.338,4.338,0,0,0-4.333-4.333.333.333,0,1,0,0,.667Z" fill="#f7cc00"/>
          <path id="Path_9" data-name="Path 9" d="M11.372,7.374A1.668,1.668,0,0,1,13.038,9.04a.333.333,0,1,0,.667,0,2.336,2.336,0,0,0-2.333-2.333.333.333,0,1,0,0,.667Z" fill="#f7cc00"/>
        </g>
      </g>
    </g>
  </g>
</svg>
