<svg xmlns="http://www.w3.org/2000/svg" xmlns:xlink="http://www.w3.org/1999/xlink" width="80" height="80" viewBox="0 0 80 80">
  <defs>
    <clipPath id="clip-path">
      <rect id="Rectangle_52" data-name="Rectangle 52" width="80" height="80" transform="translate(264 2364)" fill="#fff" stroke="#707070" stroke-width="1"/>
    </clipPath>
  </defs>
  <g id="Mask_Group_6" data-name="Mask Group 6" transform="translate(-264 -2364)" clip-path="url(#clip-path)">
    <g id="whatsapp" transform="translate(264 2364)">
      <path id="Path_33" data-name="Path 33" d="M0,80,6.88,59.361A39.306,39.306,0,1,1,22.4,74.106Z" fill="#2cb742"/>
      <path id="Path_34" data-name="Path 34" d="M65.77,52.393c-1.815-3.43-8.509-7.353-8.509-7.353-1.514-.863-3.342-.96-4.206.579A34.672,34.672,0,0,1,50.327,48.6c-2.527,1.712-4.868,1.646-7.23-.717l-5.491-5.491L32.114,36.9c-2.363-2.363-2.429-4.7-.717-7.23a34.671,34.671,0,0,1,2.983-2.728c1.539-.865,1.443-2.691.579-4.206,0,0-3.923-6.694-7.353-8.509a3.76,3.76,0,0,0-4.418.665L20.764,17.32c-7.692,7.692-3.9,16.377,3.788,24.069l7.03,7.03,7.03,7.03c7.692,7.692,16.377,11.48,24.069,3.788l2.425-2.425A3.763,3.763,0,0,0,65.77,52.393Z" fill="#fff"/>
    </g>
  </g>
</svg>
