<svg xmlns="http://www.w3.org/2000/svg" xmlns:xlink="http://www.w3.org/1999/xlink" width="20" height="20" viewBox="0 0 20 20">
  <defs>
    <clipPath id="clip-path">
      <rect id="icon-email" width="20" height="20" transform="translate(987 30)" fill="#f7cc00"/>
    </clipPath>
  </defs>
  <g id="email" transform="translate(-987 -30)" clip-path="url(#clip-path)">
    <g id="_002-envelope" data-name="002-envelope" transform="translate(987 30)">
      <g id="Group_4" data-name="Group 4">
        <path id="Path_12" data-name="Path 12" d="M18.333,2.5H1.667A1.668,1.668,0,0,0,0,4.167V15.833A1.668,1.668,0,0,0,1.667,17.5H18.333A1.668,1.668,0,0,0,20,15.833V4.167A1.668,1.668,0,0,0,18.333,2.5ZM1.667,3.333H18.333a.793.793,0,0,1,.173.035c-1.443,1.321-6.227,5.7-7.9,7.206a.836.836,0,0,1-1.21,0c-1.674-1.508-6.459-5.886-7.9-7.206A.8.8,0,0,1,1.667,3.333Zm-.833,12.5V4.167a.8.8,0,0,1,.047-.23C1.984,4.947,5.323,8,7.487,9.97c-2.158,1.853-5.5,5.019-6.61,6.081A.8.8,0,0,1,.833,15.833Zm17.5.833H1.667a.8.8,0,0,1-.188-.038c1.15-1.1,4.511-4.281,6.631-6.094l.728.659a1.664,1.664,0,0,0,2.325,0l.728-.659c2.12,1.813,5.48,5,6.631,6.094A.8.8,0,0,1,18.333,16.667Zm.833-.833a.8.8,0,0,1-.044.217c-1.114-1.062-4.452-4.228-6.61-6.081C14.677,8,18.015,4.947,19.12,3.936a.805.805,0,0,1,.047.23Z" fill="#f7cc00"/>
      </g>
    </g>
  </g>
</svg>
