<svg xmlns="http://www.w3.org/2000/svg" xmlns:xlink="http://www.w3.org/1999/xlink" width="40" height="40" viewBox="0 0 40 40">
  <defs>
    <clipPath id="clip-path">
      <rect id="icon-endereco" width="40" height="40" transform="translate(230 3002)" fill="#f7cc00"/>
    </clipPath>
  </defs>
  <g id="maps" transform="translate(-230 -3002)" clip-path="url(#clip-path)">
    <g id="address" transform="translate(230 3004.439)">
      <path id="Path_19" data-name="Path 19" d="M38.167,22.148a5.9,5.9,0,0,0-3.6-1.718V1.86a.621.621,0,0,0-.873-.567L22.867,6.1,12.03.083,12.011.074,11.988.063l-.049-.02L11.923.037a.612.612,0,0,0-.141-.029h-.015a.5.5,0,0,0-.056,0h-.019c-.019,0-.038,0-.057.006l-.013,0a.576.576,0,0,0-.069.016l-.012,0a.54.54,0,0,0-.056.021l-.008,0L.368,5A.621.621,0,0,0,0,5.563V30.248a.621.621,0,0,0,.873.568L11.7,26l10.837,6.021.025.012.033.016.047.017.032.01c.017,0,.034.008.051.011l.031.006c.022,0,.044,0,.066,0h.017a.685.685,0,0,0,.076-.005l.017,0a.549.549,0,0,0,.057-.011l.022-.006c.018,0,.035-.011.053-.018l.02-.008.007,0,5.615-2.5a6.77,6.77,0,0,0,.942,1.263l3.853,4.1a.62.62,0,0,0,.905,0l3.852-4.1a6.4,6.4,0,0,0,1.372-2.18,5.968,5.968,0,0,0,.36-2.456,6.308,6.308,0,0,0-1.821-4.033Zm-4.843-1.717a5.9,5.9,0,0,0-3.587,1.717,6.307,6.307,0,0,0-1.821,4.033,5.93,5.93,0,0,0,.286,2.237l-4.744,2.108V7.2l9.867-4.385ZM12.349,1.681l9.866,5.481V30.427l-9.866-5.481ZM1.241,5.966l9.867-4.385V24.907L1.241,29.292ZM38.462,28.212a5.164,5.164,0,0,1-1.11,1.756l-3.4,3.622-3.4-3.622a5.164,5.164,0,0,1-1.11-1.756,4.729,4.729,0,0,1-.287-1.948,5.066,5.066,0,0,1,1.462-3.24,4.71,4.71,0,0,1,6.671,0,5.068,5.068,0,0,1,1.462,3.24,4.735,4.735,0,0,1-.287,1.948Zm0,0" fill="#f7cc00"/>
      <path id="Path_20" data-name="Path 20" d="M33.952,22.806a3.353,3.353,0,1,0,3.281,3.352A3.321,3.321,0,0,0,33.952,22.806Zm0,5.463a2.112,2.112,0,1,1,2.039-2.111A2.078,2.078,0,0,1,33.952,28.269Zm0,0" fill="#f7cc00"/>
    </g>
  </g>
</svg>
