<svg xmlns="http://www.w3.org/2000/svg" xmlns:xlink="http://www.w3.org/1999/xlink" width="20" height="20" viewBox="0 0 20 20">
  <defs>
    <clipPath id="clip-path">
      <rect id="icon-whatsapp" width="20" height="20" transform="translate(843 32)" fill="#f7cc00"/>
    </clipPath>
  </defs>
  <g id="whatsapp" transform="translate(-843 -32)" clip-path="url(#clip-path)">
    <g id="_003-whatsapp" data-name="003-whatsapp" transform="translate(843 32)">
      <g id="Group_3" data-name="Group 3">
        <path id="Path_10" data-name="Path 10" d="M10,0A10,10,0,0,0,1.514,15.293c-.395,1.384-1.108,4-1.116,4.029a.385.385,0,0,0,.484.468l3.964-1.219A10,10,0,1,0,10,0Zm0,19.231a9.208,9.208,0,0,1-4.9-1.4.385.385,0,0,0-.2-.058.391.391,0,0,0-.113.017L1.325,18.85c.254-.928.711-2.588.976-3.512a.386.386,0,0,0-.047-.316A9.232,9.232,0,1,1,10,19.231Z" fill="#f7cc00"/>
        <path id="Path_11" data-name="Path 11" d="M16.533,12.356c-.71-.394-1.315-.79-1.756-1.078-.337-.22-.58-.379-.759-.468A.874.874,0,0,0,13,10.882a.385.385,0,0,0-.048.058A5.407,5.407,0,0,1,11.557,12.5,9.261,9.261,0,0,1,9.192,10.97,5.12,5.12,0,0,1,7.321,8.606c.7-.718.948-1.169.948-1.683A10.884,10.884,0,0,0,6.81,3.959c-.224-.224-.729-.259-1.5-.105a.388.388,0,0,0-.2.105c-.093.093-2.28,2.323-1.241,5.025,1.141,2.966,4.069,6.413,7.8,6.973a8.09,8.09,0,0,0,1.194.095,3.541,3.541,0,0,0,3.857-3.3A.383.383,0,0,0,16.533,12.356ZM11.788,15.2c-3.948-.592-6.434-4.5-7.2-6.488a4.234,4.234,0,0,1,.99-4.122,2.9,2.9,0,0,1,.711-.049A13.813,13.813,0,0,1,7.5,6.923c0,.2-.066.483-.849,1.267a.383.383,0,0,0-.113.272c0,2.014,4.248,4.808,5,4.808.654,0,1.507-1.1,1.993-1.816a.365.365,0,0,1,.143.045c.138.07.378.226.682.425.4.262.933.61,1.562.97C15.632,14.265,14.835,15.654,11.788,15.2Z" fill="#f7cc00"/>
      </g>
    </g>
  </g>
</svg>
