<svg xmlns="http://www.w3.org/2000/svg" xmlns:xlink="http://www.w3.org/1999/xlink" width="40" height="40" viewBox="0 0 40 40">
  <defs>
    <clipPath id="clip-path">
      <rect id="icon-instagram" width="40" height="40" transform="translate(1070 3003)" fill="#f7cc00"/>
    </clipPath>
  </defs>
  <g id="Mask_Group_9" data-name="Mask Group 9" transform="translate(-1070 -3003)" clip-path="url(#clip-path)">
    <g id="_002-linkedin" data-name="002-linkedin" transform="translate(1069.956 3003)">
      <path id="Path_24" data-name="Path 24" d="M30.983,40l7.767,0A1.25,1.25,0,0,0,40,38.748c-.583-13.095,3.07-26.913-10.563-26.913a9.917,9.917,0,0,0-6.215,2.078c0-2.435-2.632-1.088-8.707-1.45a1.25,1.25,0,0,0-1.25,1.25C13.768,37.323,12.142,40,14.515,40h7.767c2.255,0,.82-3.18,1.25-13.647,0-4.323,1.25-5.17,3.41-5.17,2.39,0,2.792,1.66,2.792,5.38C30.162,36.84,28.737,40,30.983,40ZM26.942,18.682c-7.485,0-5.91,8.23-5.91,18.817H15.765V14.963h4.957v2.163a1.326,1.326,0,0,0,2.465.583,6.946,6.946,0,0,1,6.25-3.375c5.878,0,8.063,2.888,8.063,10.66V37.5H32.233c0-11.907,1.26-18.818-5.292-18.818Z" fill="#f7cc00"/>
      <path id="Path_25" data-name="Path 25" d="M1.87,12.465c-2.367,0-.747,2.642-1.25,26.285A1.25,1.25,0,0,0,1.87,40H9.645c2.367,0,.747-2.642,1.25-26.285,0-2.158-3.135-.885-9.025-1.25ZM8.395,37.5H3.12V14.965H8.395Z" fill="#f7cc00"/>
      <path id="Path_26" data-name="Path 26" d="M5.753,0c-7.627,0-7.58,11.548,0,11.548S13.388,0,5.753,0Zm0,9.048c-4.28,0-4.32-6.548,0-6.548S10.027,9.048,5.753,9.048Z" fill="#f7cc00"/>
    </g>
  </g>
</svg>
